{
  "accessors": [
    {
      "bufferView": 2,
      "componentType": 5126,
      "count": 112,
      "max": [
        0.011673999950289726,
        0.0029810001142323017,
        0.007356999907642603
      ],
      "min": [
        -0.011673999950289726,
        -0.002985999919474125,
        -0.001711999997496605
      ],
      "type": "VEC3"
    },
    {
      "bufferView": 2,
      "byteOffset": 1344,
      "componentType": 5126,
      "count": 112,
      "max": [
        0.0,
        0.9999995231628418,
        0.000999999581836164
      ],
      "min": [
        0.0,
        -0.9999995231628418,
        -0.000999999581836164
      ],
      "type": "VEC3"
    },
    {
      "bufferView": 3,
      "componentType": 5126,
      "count": 112,
      "max": [
        0.0013600870734080672,
        -0.0009999986505135894,
        0.9999995827674866,
        1.0
      ],
      "min": [
        -0.0013453341089189053,
        -0.0009999998146668077,
        0.9999986290931702,
        1.0
      ],
      "type": "VEC4"
    },
    {
      "bufferView": 1,
      "componentType": 5126,
      "count": 112,
      "max": [
        0.7577720284461975,
        0.8013259768486023
      ],
      "min": [
        0.7095230221748352,
        0.5402209758758545
      ],
      "type": "VEC2"
    },
    {
      "bufferView": 0,
      "componentType": 5125,
      "count": 492,
      "type": "SCALAR"
    },
    {
      "bufferView": 2,
      "byteOffset": 2688,
      "componentType": 5126,
      "count": 640,
      "max": [
        0.033270999789237976,
        0.0018609999679028988,
        0.022771000862121582
      ],
      "min": [
        -0.04120900109410286,
        -0.0018649999983608723,
        -0.017295999452471733
      ],
      "type": "VEC3"
    },
    {
      "bufferView": 2,
      "byteOffset": 10368,
      "componentType": 5126,
      "count": 640,
      "max": [
        0.9993075132369995,
        1.0,
        0.9993077516555786
      ],
      "min": [
        -0.9993075132369995,
        -1.0,
        -0.9993077516555786
      ],
      "type": "VEC3"
    },
    {
      "bufferView": 3,
      "byteOffset": 1792,
      "componentType": 5126,
      "count": 640,
      "max": [
        0.9684183597564697,
        0.9999996423721313,
        0.9927381873130798,
        1.0
      ],
      "min": [
        -0.9984246492385864,
        -0.9999995827674866,
        -0.9684104323387146,
        1.0
      ],
      "type": "VEC4"
    },
    {
      "bufferView": 1,
      "byteOffset": 896,
      "componentType": 5126,
      "count": 640,
      "max": [
        0.9876449704170227,
        0.990451991558075
      ],
      "min": [
        0.009548000060021877,
        0.009548000060021877
      ],
      "type": "VEC2"
    },
    {
      "bufferView": 0,
      "byteOffset": 1968,
      "componentType": 5125,
      "count": 2016,
      "type": "SCALAR"
    },
    {
      "bufferView": 2,
      "byteOffset": 18048,
      "componentType": 5126,
      "count": 4312,
      "max": [
        0.05102799832820892,
        0.005104000214487314,
        0.031504999846220016
      ],
      "min": [
        -0.05102799832820892,
        -0.005264999810606241,
        -0.031504999846220016
      ],
      "type": "VEC3"
    },
    {
      "bufferView": 2,
      "byteOffset": 69792,
      "componentType": 5126,
      "count": 4312,
      "max": [
        1.0,
        0.9999995231628418,
        0.9999995231628418
      ],
      "min": [
        -1.0,
        -0.9999995231628418,
        -0.9999997615814209
      ],
      "type": "VEC3"
    },
    {
      "bufferView": 3,
      "byteOffset": 12032,
      "componentType": 5126,
      "count": 4312,
      "max": [
        1.0,
        1.0,
        0.9999997615814209,
        1.0
      ],
      "min": [
        -1.0,
        -1.0,
        -0.9999998807907104,
        -1.0
      ],
      "type": "VEC4"
    },
    {
      "bufferView": 1,
      "byteOffset": 6016,
      "componentType": 5126,
      "count": 4312,
      "max": [
        0.9937480092048645,
        0.9926300048828125
      ],
      "min": [
        0.0,
        0.0
      ],
      "type": "VEC2"
    },
    {
      "bufferView": 0,
      "byteOffset": 10032,
      "componentType": 5125,
      "count": 14106,
      "type": "SCALAR"
    }
  ],
  "asset": {
    "extras": {
      "author": "HardBread (https://sketchfab.com/Alexey..Tverdohleb)",
      "license": "CC-BY-NC-4.0 (http://creativecommons.org/licenses/by-nc/4.0/)",
      "source": "https://sketchfab.com/3d-models/music-cassette-d08e632a682b443f9cbea787b771f488",
      "title": "Music Cassette"
    },
    "generator": "Sketchfab-12.67.0",
    "version": "2.0"
  },
  "bufferViews": [
    {
      "buffer": 0,
      "byteLength": 66456,
      "name": "floatBufferViews",
      "target": 34963
    },
    {
      "buffer": 0,
      "byteLength": 40512,
      "byteOffset": 66456,
      "byteStride": 8,
      "name": "floatBufferViews",
      "target": 34962
    },
    {
      "buffer": 0,
      "byteLength": 121536,
      "byteOffset": 106968,
      "byteStride": 12,
      "name": "floatBufferViews",
      "target": 34962
    },
    {
      "buffer": 0,
      "byteLength": 81024,
      "byteOffset": 228504,
      "byteStride": 16,
      "name": "floatBufferViews",
      "target": 34962
    }
  ],
  "buffers": [
    {
      "byteLength": 309528,
      "uri": "scene.bin"
    }
  ],
  "extensionsUsed": [
    "KHR_materials_transmission"
  ],
  "images": [
    {
      "uri": "textures/Magnetic_Tape_baseColor.png"
    },
    {
      "uri": "textures/Magnetic_Tape_metallicRoughness.png"
    },
    {
      "uri": "textures/Magnetic_Tape_normal.png"
    },
    {
      "uri": "textures/Music_Cassette_baseColor.png"
    },
    {
      "uri": "textures/Music_Cassette_metallicRoughness.png"
    },
    {
      "uri": "textures/Music_Cassette_normal.png"
    },
    {
      "uri": "textures/Opacity_baseColor.png"
    },
    {
      "uri": "textures/Opacity_transmission.png"
    }
  ],
  "materials": [
    {
      "doubleSided": true,
      "name": "Magnetic_Tape",
      "normalTexture": {
        "index": 2
      },
      "pbrMetallicRoughness": {
        "baseColorTexture": {
          "index": 0
        },
        "metallicFactor": 0.0,
        "metallicRoughnessTexture": {
          "index": 1
        }
      }
    },
    {
      "doubleSided": true,
      "name": "Music_Cassette",
      "normalTexture": {
        "index": 5
      },
      "pbrMetallicRoughness": {
        "baseColorTexture": {
          "index": 3
        },
        "metallicRoughnessTexture": {
          "index": 4
        }
      }
    },
    {
      "alphaMode": "BLEND",
      "doubleSided": true,
      "extensions": {
        "KHR_materials_transmission": {
          "transmissionFactor": 1.0,
          "transmissionTexture": {
            "index": 7
          }
        }
      },
      "name": "Opacity",
      "normalTexture": {
        "index": 5
      },
      "pbrMetallicRoughness": {
        "baseColorFactor": [
          0.4987199530935721,
          0.4987199530935721,
          0.4987199530935721,
          1.0
        ],
        "baseColorTexture": {
          "index": 6
        },
        "metallicRoughnessTexture": {
          "index": 4
        }
      }
    }
  ],
  "meshes": [
    {
      "name": "Object_0",
      "primitives": [
        {
          "attributes": {
            "NORMAL": 1,
            "POSITION": 0,
            "TANGENT": 2,
            "TEXCOORD_0": 3
          },
          "indices": 4,
          "material": 2,
          "mode": 4
        }
      ]
    },
    {
      "name": "Object_1",
      "primitives": [
        {
          "attributes": {
            "NORMAL": 6,
            "POSITION": 5,
            "TANGENT": 7,
            "TEXCOORD_0": 8
          },
          "indices": 9,
          "material": 0,
          "mode": 4
        }
      ]
    },
    {
      "name": "Object_2",
      "primitives": [
        {
          "attributes": {
            "NORMAL": 11,
            "POSITION": 10,
            "TANGENT": 12,
            "TEXCOORD_0": 13
          },
          "indices": 14,
          "material": 1,
          "mode": 4
        }
      ]
    }
  ],
  "nodes": [
    {
      "children": [
        1
      ],
      "matrix": [
        1.0,
        0.0,
        0.0,
        0.0,
        0.0,
        -1.0,
        -4.440892098500626e-16,
        0.0,
        0.0,
        4.440892098500626e-16,
        -1.0,
        0.0,
        0.0,
        -8.052727207541467e-05,
        8.048629388213156e-05,
        1.0
      ],
      "name": "Sketchfab_model"
    },
    {
      "children": [
        2,
        3,
        4
      ],
      "name": "25ebc017691241d9b8b94d76c03ea182.obj.cleaner.materialmerger.gles"
    },
    {
      "mesh": 0,
      "name": "Object_2"
    },
    {
      "mesh": 1,
      "name": "Object_3"
    },
    {
      "mesh": 2,
      "name": "Object_4"
    }
  ],
  "samplers": [
    {
      "magFilter": 9729,
      "minFilter": 9987,
      "wrapS": 10497,
      "wrapT": 10497
    }
  ],
  "scene": 0,
  "scenes": [
    {
      "name": "Sketchfab_Scene",
      "nodes": [
        0
      ]
    }
  ],
  "textures": [
    {
      "sampler": 0,
      "source": 0
    },
    {
      "sampler": 0,
      "source": 1
    },
    {
      "sampler": 0,
      "source": 2
    },
    {
      "sampler": 0,
      "source": 3
    },
    {
      "sampler": 0,
      "source": 4
    },
    {
      "sampler": 0,
      "source": 5
    },
    {
      "sampler": 0,
      "source": 6
    },
    {
      "sampler": 0,
      "source": 7
    }
  ]
}
